<?xml version="1.0" encoding="utf-8"?>
<!-- Generator: Adobe Illustrator 22.0.0, SVG Export Plug-In . SVG Version: 6.00 Build 0)  -->
<svg version="1.1" id="Layer_1" xmlns="http://www.w3.org/2000/svg" xmlns:xlink="http://www.w3.org/1999/xlink" x="0px" y="0px"
	 viewBox="0 0 74.8 74.9" style="enable-background:new 0 0 74.8 74.9;" xml:space="preserve">
<style type="text/css">
	.st0{fill:#00B5E7;}
	.st1{fill:#18BCEA;}
	.st2{fill:#33C4EC;}
	.st3{fill:#70D5F1;}
	.st4{fill:#AAE6F6;}
	.st5{fill:#FCFCFC;}
	.st6{fill:#FEFEFE;}
</style>
<g>
	<path class="st0" d="M0.2,33.8c0.3-3.9,1.2-7.6,2.8-11.1c1.5-3.4,3.3-6.5,5.7-9.3c2.3-2.7,4.9-5.2,7.9-7.1c5-3.2,10.4-5.4,16.3-6.1
		c0.2,0,0.4,0,0.4-0.2c0.1,0,0.1,0,0.2,0c0.4,0.2,0.8,0,1.2,0.1c1.3,0,2.5,0,3.8,0c0.5,0,1,0,1.5,0c0.3,0,0.6-0.1,1,0.1
		c6.7,0.7,12.8,3.1,18.2,7c4.3,3,7.7,6.8,10.4,11.3c2.4,4.1,4,8.4,4.7,13.1c0.1,0.9,0.3,1.8,0.4,2.6c0.2,0.4,0,0.9,0.1,1.3
		c0,1.3,0,2.6,0,3.8c-0.2,0.4,0,0.9-0.1,1.3c-0.6,5-1.8,9.7-4.2,14.2c-3.4,6.2-8,11.3-14.1,14.9c-3.4,2-7,3.4-10.9,4.3
		c-1.6,0.3-3.1,0.5-4.7,0.7c-0.4,0.2-0.9-0.1-1.3,0.1c-1.3,0-2.7,0-4,0c-0.4-0.2-0.8,0-1.1-0.1c-2.4-0.1-4.7-0.5-7-1.2
		c-2.9-0.9-5.7-2-8.3-3.5c-3.2-1.9-6.2-4.1-8.7-6.8c-2.6-2.8-4.8-5.9-6.5-9.3c-1.6-3.2-2.6-6.6-3.3-10.1c-0.2-0.8-0.2-1.6-0.2-2.4
		c-0.1-0.3,0-0.6-0.1-0.9c0-1.8,0-3.5,0-5.3C0.2,34.7,0,34.3,0.2,33.8z"/>
	<path class="st1" d="M38.5,0.2c-1.3,0-2.7,0-4,0c0,0-0.1-0.1,0-0.1c0,0,0,0,0.1,0c1.3,0,2.6,0,4,0C38.6,0,38.6,0.1,38.5,0.2
		C38.6,0.2,38.6,0.2,38.5,0.2z"/>
	<path class="st2" d="M38.5,0.2c0-0.1,0-0.1,0-0.2c0.5,0,1,0,1.4,0C40,0,40,0.1,40,0.1v0.1C39.5,0.2,39,0.2,38.5,0.2z"/>
	<path class="st3" d="M34.6,0c0,0.1,0,0.1,0,0.2c-0.4-0.1-0.8,0.2-1.1-0.2C33.9,0,34.2,0,34.6,0z"/>
	<path class="st4" d="M40,0.2c0,0,0-0.1,0-0.2c0.3,0,0.6,0,0.9,0c0,0.1,0,0.1,0,0.2C40.6,0.2,40.3,0.2,40,0.2z"/>
	<path class="st5" d="M0.2,33.8c0,0.4,0,0.9-0.1,1.3C0.1,34.7-0.1,34.3,0.2,33.8z"/>
	<path class="st5" d="M74.7,35.5c-0.2-0.4-0.1-0.9-0.1-1.3C74.9,34.6,74.7,35.1,74.7,35.5z"/>
	<path class="st5" d="M74.6,40.7c0-0.4,0-0.9,0.1-1.3C74.7,39.8,74.9,40.3,74.6,40.7z"/>
	<path class="st5" d="M39.4,74.9c0.4-0.2,0.9-0.1,1.3-0.1C40.3,75,39.8,74.8,39.4,74.9z"/>
	<path class="st5" d="M34.2,74.7c0.4,0,0.8,0,1.1,0.1C35,74.8,34.6,75,34.2,74.7z"/>
	<path class="st5" d="M0,40.5c0.2,0.3,0.2,0.6,0.1,0.9C-0.1,41.1,0,40.8,0,40.5z"/>
	<path class="st6" d="M5.4,37.1C5.3,18.8,20.5,5,37.2,5.1c18.1,0,32.6,14.4,32.5,32.2c-0.1,17.9-14.4,32.2-32.2,32.1
		C19.7,69.2,5.3,54.8,5.4,37.1z"/>
	<path class="st0" d="M56.8,32.9c0,8.4-6.8,15.3-15.2,15.2c-3.3,0-6.3-0.9-8.9-2.8c-0.6-0.4-0.9-0.3-1.3,0.1
		c-3.2,3.2-6.3,6.3-9.5,9.5c-0.4,0.4-0.7,0.8-1.2,0.8c-0.8,0.1-1.4-0.1-1.7-0.8c-0.4-0.7-0.4-1.4,0.1-2c0.6-0.7,1.2-1.3,1.8-1.9
		c2.6-2.6,5.2-5.3,7.9-7.9c0.6-0.6,0.7-0.9,0.2-1.7c-6.5-9.6-0.2-21.4,9.1-23.6C47.6,15.7,56.8,23,56.8,32.9z"/>
	<path class="st6" d="M41.4,44.9c-6.6-0.1-11.9-5.3-11.8-11.9c0-6.7,5.4-12.1,12.1-12c6.2,0.1,11.7,5.8,11.6,12
		C53.2,39.6,47.9,44.9,41.4,44.9z"/>
</g>
</svg>
